<svg width="85" height="42" viewBox="0 0 85 42" fill="none" xmlns="http://www.w3.org/2000/svg">
<path d="M13.1462 13.1029H13.1433C10.7453 13.1029 8.80127 14.8305 8.80127 16.9616V16.9641C8.80127 19.0952 10.7453 20.8228 13.1433 20.8228H13.1462C15.5442 20.8228 17.4882 19.0952 17.4882 16.9641V16.9616C17.4882 14.8305 15.5442 13.1029 13.1462 13.1029Z" fill="#2196F3"/>
<path d="M45.195 11.8693C45.1882 8.90935 43.8623 6.07229 41.5074 3.97901C39.1525 1.88574 35.9604 0.706733 32.6297 0.700012V0.700012C29.298 0.705389 26.1045 1.8838 23.7484 3.97722C21.3922 6.07064 20.0655 8.90847 20.0587 11.8693V11.8693V28.1922C20.0587 28.1922 45.1922 25.7045 45.195 11.8719V11.8693Z" fill="#2196F3"/>
<path d="M0 33.5495C0.00604098 35.6091 0.929149 37.5829 2.56761 39.0395C4.20607 40.4961 6.42668 41.3171 8.74418 41.3231V41.3231C11.0612 41.3171 13.2814 40.4964 14.9197 39.0404C16.5581 37.5843 17.4816 35.6112 17.4884 33.5521V33.5521V22.1944C17.4884 22.1944 0 23.9267 0 33.5495ZM8.74418 35.5845C8.2913 35.5845 7.84859 35.4652 7.47204 35.2415C7.09548 35.0179 6.80199 34.7001 6.62868 34.3283C6.45537 33.9564 6.41002 33.5473 6.49838 33.1525C6.58673 32.7578 6.80481 32.3952 7.12505 32.1106C7.44528 31.826 7.85328 31.6322 8.29746 31.5537C8.74164 31.4751 9.20204 31.5154 9.62045 31.6695C10.0389 31.8235 10.3965 32.0843 10.6481 32.419C10.8997 32.7536 11.034 33.1471 11.034 33.5495C11.0351 33.8174 10.9767 34.0828 10.8622 34.3306C10.7476 34.5784 10.5791 34.8036 10.3664 34.9934C10.1536 35.1832 9.90081 35.3338 9.62244 35.4365C9.34407 35.5392 9.04561 35.5921 8.74418 35.5921V35.5845Z" fill="#2196F3"/>
<path d="M24.7302 31.9413V36.207H23.8513V31.9413H24.7302ZM26.4294 33.7636V34.4492H24.4899V33.7636H26.4294ZM26.6345 31.9413V32.6298H24.4899V31.9413H26.6345ZM30.6481 33.9745V34.1767C30.6481 34.5009 30.6042 34.7919 30.5163 35.0497C30.4284 35.3076 30.3044 35.5273 30.1442 35.7089C29.9841 35.8886 29.7927 36.0263 29.57 36.122C29.3493 36.2177 29.1042 36.2656 28.8347 36.2656C28.5671 36.2656 28.322 36.2177 28.0993 36.122C27.8786 36.0263 27.6872 35.8886 27.5251 35.7089C27.363 35.5273 27.237 35.3076 27.1472 35.0497C27.0593 34.7919 27.0153 34.5009 27.0153 34.1767V33.9745C27.0153 33.6484 27.0593 33.3574 27.1472 33.1015C27.235 32.8437 27.3591 32.624 27.5192 32.4423C27.6813 32.2607 27.8727 32.122 28.0934 32.0263C28.3161 31.9306 28.5612 31.8828 28.8288 31.8828C29.0983 31.8828 29.3434 31.9306 29.5641 32.0263C29.7868 32.122 29.9782 32.2607 30.1384 32.4423C30.3005 32.624 30.4255 32.8437 30.5134 33.1015C30.6032 33.3574 30.6481 33.6484 30.6481 33.9745ZM29.7604 34.1767V33.9687C29.7604 33.7421 29.7399 33.5429 29.6989 33.371C29.6579 33.1992 29.5974 33.0546 29.5173 32.9374C29.4372 32.8203 29.3395 32.7324 29.2243 32.6738C29.1091 32.6132 28.9772 32.5829 28.8288 32.5829C28.6804 32.5829 28.5485 32.6132 28.4333 32.6738C28.32 32.7324 28.2233 32.8203 28.1432 32.9374C28.0651 33.0546 28.0056 33.1992 27.9645 33.371C27.9235 33.5429 27.903 33.7421 27.903 33.9687V34.1767C27.903 34.4013 27.9235 34.6005 27.9645 34.7744C28.0056 34.9462 28.0661 35.0917 28.1462 35.2109C28.2263 35.3281 28.3239 35.4169 28.4391 35.4775C28.5544 35.538 28.6862 35.5683 28.8347 35.5683C28.9831 35.5683 29.1149 35.538 29.2302 35.4775C29.3454 35.4169 29.4421 35.3281 29.5202 35.2109C29.5983 35.0917 29.6579 34.9462 29.6989 34.7744C29.7399 34.6005 29.7604 34.4013 29.7604 34.1767ZM33.5016 35.0908C33.5016 35.0146 33.4899 34.9462 33.4665 34.8857C33.445 34.8232 33.404 34.7665 33.3434 34.7158C33.2829 34.663 33.1979 34.6113 33.0886 34.5605C32.9792 34.5097 32.8376 34.457 32.6638 34.4023C32.4704 34.3398 32.2868 34.2695 32.113 34.1913C31.9411 34.1132 31.7888 34.0224 31.6559 33.9189C31.5251 33.8134 31.4216 33.6913 31.3454 33.5527C31.2712 33.414 31.2341 33.2529 31.2341 33.0693C31.2341 32.8915 31.2731 32.7304 31.3513 32.5859C31.4294 32.4394 31.5388 32.3144 31.6794 32.2109C31.82 32.1054 31.986 32.0244 32.1774 31.9677C32.3708 31.9111 32.5827 31.8828 32.8132 31.8828C33.1276 31.8828 33.402 31.9394 33.6364 32.0527C33.8708 32.166 34.0524 32.3212 34.1813 32.5185C34.3122 32.7158 34.3776 32.9413 34.3776 33.1953H33.5046C33.5046 33.0703 33.4782 32.9609 33.4255 32.8671C33.3747 32.7714 33.2966 32.6962 33.1911 32.6415C33.0876 32.5869 32.9567 32.5595 32.7985 32.5595C32.6462 32.5595 32.5192 32.5829 32.4177 32.6298C32.3161 32.6747 32.2399 32.7363 32.1891 32.8144C32.1384 32.8906 32.113 32.9765 32.113 33.0722C32.113 33.1445 32.1306 33.2099 32.1657 33.2685C32.2028 33.3271 32.2575 33.3818 32.3298 33.4326C32.402 33.4833 32.4909 33.5312 32.5964 33.5761C32.7018 33.621 32.8239 33.665 32.9626 33.7079C33.195 33.7783 33.3991 33.8574 33.5749 33.9453C33.7526 34.0331 33.9011 34.1318 34.0202 34.2411C34.1393 34.3505 34.2292 34.4745 34.2897 34.6132C34.3503 34.7519 34.3806 34.9091 34.3806 35.0849C34.3806 35.2704 34.3444 35.4365 34.2722 35.5829C34.1999 35.7294 34.0954 35.8535 33.9587 35.955C33.822 36.0566 33.6589 36.1337 33.4694 36.1865C33.28 36.2392 33.0681 36.2656 32.8337 36.2656C32.6227 36.2656 32.4147 36.2382 32.2097 36.1835C32.0046 36.1269 31.8181 36.0419 31.6501 35.9286C31.4841 35.8154 31.3513 35.6708 31.2516 35.4951C31.152 35.3193 31.1022 35.1113 31.1022 34.871H31.9841C31.9841 35.0038 32.0046 35.1161 32.0456 35.2079C32.0866 35.2997 32.1442 35.374 32.2184 35.4306C32.2946 35.4872 32.3845 35.5283 32.488 35.5536C32.5934 35.579 32.7087 35.5917 32.8337 35.5917C32.986 35.5917 33.111 35.5703 33.2087 35.5273C33.3083 35.4843 33.3815 35.4247 33.4284 35.3486C33.4772 35.2724 33.5016 35.1865 33.5016 35.0908ZM36.8854 31.9413V36.207H36.0095V31.9413H36.8854ZM38.1979 31.9413V32.6298H34.7175V31.9413H38.1979ZM41.5612 35.5214V36.207H39.2907V35.5214H41.5612ZM39.5778 31.9413V36.207H38.6989V31.9413H39.5778ZM41.2653 33.6786V34.3466H39.2907V33.6786H41.2653ZM41.5583 31.9413V32.6298H39.2907V31.9413H41.5583ZM42.0739 31.9413H43.6647C43.9909 31.9413 44.2712 31.9902 44.5056 32.0878C44.7419 32.1855 44.9235 32.33 45.0505 32.5214C45.1774 32.7128 45.2409 32.9482 45.2409 33.2275C45.2409 33.456 45.2018 33.6523 45.1237 33.8163C45.0475 33.9785 44.9391 34.1142 44.7985 34.2236C44.6599 34.331 44.4968 34.4169 44.3093 34.4814L44.0309 34.6279H42.6481L42.6423 33.9423H43.6706C43.8249 33.9423 43.9528 33.915 44.0544 33.8603C44.1559 33.8056 44.2321 33.7294 44.2829 33.6318C44.3356 33.5341 44.362 33.4208 44.362 33.2919C44.362 33.1552 44.3366 33.037 44.2858 32.9374C44.235 32.8378 44.1579 32.7617 44.0544 32.7089C43.9509 32.6562 43.821 32.6298 43.6647 32.6298H42.9528V36.207H42.0739V31.9413ZM44.4587 36.207L43.486 34.3056L44.4147 34.2997L45.3991 36.166V36.207H44.4587ZM49.0729 34.6865H47.986V34.0009H49.0729C49.2409 34.0009 49.3776 33.9736 49.4831 33.9189C49.5886 33.8622 49.6657 33.7841 49.7145 33.6845C49.7634 33.5849 49.7878 33.4726 49.7878 33.3476C49.7878 33.2206 49.7634 33.1025 49.7145 32.9931C49.6657 32.8837 49.5886 32.7958 49.4831 32.7294C49.3776 32.663 49.2409 32.6298 49.0729 32.6298H48.2907V36.207H47.4118V31.9413H49.0729C49.4069 31.9413 49.6931 32.0019 49.9313 32.123C50.1716 32.2421 50.3552 32.4072 50.4821 32.6181C50.6091 32.829 50.6725 33.0703 50.6725 33.3417C50.6725 33.6171 50.6091 33.8554 50.4821 34.0566C50.3552 34.2578 50.1716 34.413 49.9313 34.5224C49.6931 34.6318 49.4069 34.6865 49.0729 34.6865ZM54.1413 35.5214V36.207H51.8708V35.5214H54.1413ZM52.1579 31.9413V36.207H51.279V31.9413H52.1579ZM53.8454 33.6786V34.3466H51.8708V33.6786H53.8454ZM54.1384 31.9413V32.6298H51.8708V31.9413H54.1384ZM56.6198 31.9413V36.207H55.7438V31.9413H56.6198ZM57.9323 31.9413V32.6298H54.4518V31.9413H57.9323ZM61.2956 35.5214V36.207H59.0251V35.5214H61.2956ZM59.3122 31.9413V36.207H58.4333V31.9413H59.3122ZM60.9997 33.6786V34.3466H59.0251V33.6786H60.9997ZM61.2927 31.9413V32.6298H59.0251V31.9413H61.2927ZM61.8083 31.9413H63.3991C63.7253 31.9413 64.0056 31.9902 64.2399 32.0878C64.4763 32.1855 64.6579 32.33 64.7849 32.5214C64.9118 32.7128 64.9753 32.9482 64.9753 33.2275C64.9753 33.456 64.9362 33.6523 64.8581 33.8163C64.7819 33.9785 64.6735 34.1142 64.5329 34.2236C64.3942 34.331 64.2311 34.4169 64.0436 34.4814L63.7653 34.6279H62.3825L62.3766 33.9423H63.405C63.5593 33.9423 63.6872 33.915 63.7888 33.8603C63.8903 33.8056 63.9665 33.7294 64.0173 33.6318C64.07 33.5341 64.0964 33.4208 64.0964 33.2919C64.0964 33.1552 64.071 33.037 64.0202 32.9374C63.9694 32.8378 63.8923 32.7617 63.7888 32.7089C63.6852 32.6562 63.5554 32.6298 63.3991 32.6298H62.6872V36.207H61.8083V31.9413ZM64.1931 36.207L63.2204 34.3056L64.1491 34.2997L65.1335 36.166V36.207H64.1931ZM67.8727 35.0908C67.8727 35.0146 67.861 34.9462 67.8376 34.8857C67.8161 34.8232 67.7751 34.7665 67.7145 34.7158C67.654 34.663 67.569 34.6113 67.4597 34.5605C67.3503 34.5097 67.2087 34.457 67.0349 34.4023C66.8415 34.3398 66.6579 34.2695 66.4841 34.1913C66.3122 34.1132 66.1599 34.0224 66.027 33.9189C65.8962 33.8134 65.7927 33.6913 65.7165 33.5527C65.6423 33.414 65.6052 33.2529 65.6052 33.0693C65.6052 32.8915 65.6442 32.7304 65.7224 32.5859C65.8005 32.4394 65.9099 32.3144 66.0505 32.2109C66.1911 32.1054 66.3571 32.0244 66.5485 31.9677C66.7419 31.9111 66.9538 31.8828 67.1843 31.8828C67.4987 31.8828 67.7731 31.9394 68.0075 32.0527C68.2419 32.166 68.4235 32.3212 68.5524 32.5185C68.6833 32.7158 68.7487 32.9413 68.7487 33.1953H67.8757C67.8757 33.0703 67.8493 32.9609 67.7966 32.8671C67.7458 32.7714 67.6677 32.6962 67.5622 32.6415C67.4587 32.5869 67.3278 32.5595 67.1696 32.5595C67.0173 32.5595 66.8903 32.5829 66.7888 32.6298C66.6872 32.6747 66.611 32.7363 66.5602 32.8144C66.5095 32.8906 66.4841 32.9765 66.4841 33.0722C66.4841 33.1445 66.5016 33.2099 66.5368 33.2685C66.5739 33.3271 66.6286 33.3818 66.7009 33.4326C66.7731 33.4833 66.862 33.5312 66.9675 33.5761C67.0729 33.621 67.195 33.665 67.3337 33.7079C67.5661 33.7783 67.7702 33.8574 67.946 33.9453C68.1237 34.0331 68.2722 34.1318 68.3913 34.2411C68.5104 34.3505 68.6003 34.4745 68.6608 34.6132C68.7214 34.7519 68.7516 34.9091 68.7516 35.0849C68.7516 35.2704 68.7155 35.4365 68.6432 35.5829C68.571 35.7294 68.4665 35.8535 68.3298 35.955C68.1931 36.0566 68.03 36.1337 67.8405 36.1865C67.6511 36.2392 67.4391 36.2656 67.2048 36.2656C66.9938 36.2656 66.7858 36.2382 66.5807 36.1835C66.3757 36.1269 66.1891 36.0419 66.0212 35.9286C65.8552 35.8154 65.7224 35.6708 65.6227 35.4951C65.5231 35.3193 65.4733 35.1113 65.4733 34.871H66.3552C66.3552 35.0038 66.3757 35.1161 66.4167 35.2079C66.4577 35.2997 66.5153 35.374 66.5895 35.4306C66.6657 35.4872 66.7556 35.5283 66.8591 35.5536C66.9645 35.579 67.0798 35.5917 67.2048 35.5917C67.3571 35.5917 67.4821 35.5703 67.5798 35.5273C67.6794 35.4843 67.7526 35.4247 67.7995 35.3486C67.8483 35.2724 67.8727 35.1865 67.8727 35.0908Z" fill="#2196F3"/>
</svg>
